<svg width="47" height="48" viewBox="0 0 47 48" fill="none" xmlns="http://www.w3.org/2000/svg">
<g filter="url(#filter0_d_0_2932)">
<path d="M42.0371 32.1881H33.7503C33.4851 32.1881 33.2688 32.4061 33.2688 32.6734C33.2688 32.9407 33.4851 33.1587 33.7503 33.1587H42.0371C42.3022 33.1587 42.5185 32.9407 42.5185 32.6734C42.5185 32.4061 42.3022 32.1881 42.0371 32.1881Z" fill="white"/>
<path d="M42.037 38.34H32.7459C32.4807 38.34 32.2644 38.558 32.2644 38.8253C32.2644 39.0926 32.4807 39.3106 32.7459 39.3106H42.037C42.3022 39.3106 42.5185 39.0926 42.5185 38.8253C42.5185 38.558 42.3022 38.34 42.037 38.34Z" fill="white"/>
<path d="M4.48148 35.6916H11.9743C12.2395 35.6916 12.4558 35.4736 12.4558 35.2063C12.4558 34.939 12.2395 34.7209 11.9743 34.7209H4.48148C4.21629 34.7209 4 34.939 4 35.2063C4 35.4755 4.21629 35.6916 4.48148 35.6916Z" fill="white"/>
<path fill-rule="evenodd" clip-rule="evenodd" d="M7.74478 0.53458C7.93095 0.441691 8.15289 0.479604 8.29959 0.627475L8.29983 0.627703C8.44465 0.775549 8.48226 1.00114 8.38822 1.18883C8.08918 1.79168 7.93872 2.43434 7.93872 3.09976C7.93872 5.47703 9.8684 7.41262 12.2382 7.41262C12.9021 7.41262 13.5435 7.25906 14.1453 6.95953C14.3315 6.86664 14.5534 6.90455 14.7001 7.05242C14.8468 7.20027 14.8826 7.42587 14.7904 7.61165C13.8932 9.42591 12.0877 10.552 10.079 10.552C7.17677 10.552 4.81641 8.1802 4.81641 5.26641C4.81641 3.2474 5.93922 1.43508 7.74478 0.53458ZM13.1276 8.30699C12.8342 8.35818 12.5389 8.38283 12.238 8.38283L12.2381 8.383C9.3359 8.383 6.97553 6.01315 6.97742 3.09936C6.97742 2.79604 7.00187 2.49838 7.05265 2.20453C6.24769 2.99885 5.77937 4.09081 5.77937 5.2662C5.77937 7.64536 7.70905 9.58095 10.0789 9.58095C11.2506 9.58095 12.3358 9.11272 13.1276 8.30699Z" fill="white"/>
<path fill-rule="evenodd" clip-rule="evenodd" d="M42.0389 24.4099H42.0371C41.7719 24.4099 41.5575 24.6261 41.5556 24.8934L41.5443 27.4848L23.677 0.923499C23.4983 0.656197 23.0601 0.656197 22.8796 0.923499L5.02526 27.4659L5.03655 24.7151C5.03843 24.4478 4.82214 24.2279 4.55695 24.2279H4.55507C4.28988 24.2279 4.07547 24.4441 4.07359 24.7114L4.05666 29.0527C4.05478 29.2669 4.19396 29.4546 4.3952 29.519C4.44222 29.5342 4.48924 29.5399 4.53814 29.5399C4.69425 29.5399 4.84471 29.4621 4.93687 29.3275L7.74674 25.1512V29.0564C7.74674 29.3237 7.96303 29.5418 8.22822 29.5418H18.9523C19.4996 31.3314 21.1603 32.6357 23.1201 32.6357C23.1266 32.6357 23.1327 32.6352 23.1388 32.6347L23.1389 32.6347C23.145 32.6342 23.1511 32.6338 23.1577 32.6338C23.1605 32.6338 23.1638 32.6342 23.167 32.6347L23.1671 32.6347L23.1671 32.6347C23.1704 32.6352 23.1737 32.6357 23.1765 32.6357C23.1825 32.6357 23.1884 32.6351 23.1944 32.6343L23.2047 32.6328C23.2141 32.6314 23.2235 32.63 23.2329 32.63C25.1419 32.5807 26.75 31.2953 27.286 29.5418H38.3302C38.5954 29.5418 38.8117 29.3237 38.8117 29.0564V25.1511L41.6216 29.3275C41.7401 29.5038 41.9583 29.5816 42.1595 29.519C42.3608 29.4564 42.4999 29.2688 42.4999 29.0564L42.5187 24.8971C42.5206 24.6279 42.3062 24.4118 42.0391 24.4099L42.0389 24.4099ZM23.2327 31.6596L23.2274 31.66C23.2031 31.6617 23.1803 31.6634 23.1575 31.6634C22.3224 31.652 21.6454 30.9695 21.6454 30.1316C21.6454 29.58 22.4504 28.3098 23.1763 27.3524C23.9023 28.3098 24.7073 29.5799 24.7073 30.1316C24.7073 30.9563 24.0509 31.6293 23.2328 31.6596L23.2327 31.6596ZM25.6684 30.1297C25.6684 30.2738 25.6496 30.4103 25.627 30.5468L25.627 30.5468C26.178 29.9402 26.5166 29.1382 26.5128 28.2567C26.5128 26.8027 24.3236 23.7088 23.1161 22.1694C21.9105 23.7088 19.7194 26.8045 19.7194 28.2567C19.7194 29.2122 20.1162 30.0766 20.7501 30.6965C20.7087 30.5126 20.6805 30.325 20.6805 30.1297C20.6805 28.9012 22.4503 26.6926 22.8039 26.2623C22.9863 26.0405 23.3625 26.0405 23.545 26.2623C23.9004 26.6927 25.6684 28.9013 25.6684 30.1297ZM23.4904 21.0889C23.308 20.8671 22.9318 20.8671 22.7494 21.0889C22.3413 21.5837 18.7602 25.9969 18.7602 28.257C18.7602 28.3331 18.765 28.4083 18.7699 28.4831V28.4832C18.7718 28.5127 18.7737 28.5422 18.7753 28.5717H13.9267V25.3717C14.5549 24.8598 16.637 23.0854 18.7454 20.452C20.4569 18.3155 22.4111 15.2955 23.2969 11.8527C24.1827 15.2973 26.1369 18.3152 27.8484 20.452C29.9568 23.0852 32.0388 24.8597 32.6671 25.3717V28.5717H27.4627C27.4703 28.4675 27.4778 28.3632 27.4778 28.257C27.4797 25.9973 23.8986 21.5839 23.4905 21.0889H23.4904ZM33.6277 28.5715H37.8482L37.8507 23.7203L23.2801 2.06108L8.70951 23.7203V28.5715H12.962V25.1364C12.962 24.9847 13.0315 24.8426 13.15 24.7516L13.1504 24.7513C13.2665 24.6595 22.8134 17.1171 22.8134 8.19016C22.8134 7.92285 23.0297 7.70484 23.2948 7.70484C23.56 7.70484 23.7763 7.92285 23.7763 8.19016C23.7763 17.114 33.3165 24.6542 33.4392 24.7512L33.4397 24.7516C33.5582 24.8445 33.6277 24.9866 33.6277 25.1364V28.5715Z" fill="white"/>
<path fill-rule="evenodd" clip-rule="evenodd" d="M30.5961 34.433C30.6393 34.5543 30.6299 34.6908 30.5735 34.8064L30.5738 34.8064C30.5155 34.924 30.4158 35.0131 30.2917 35.0548L28.5106 35.6482L30.2221 36.1354C30.3463 36.1714 30.4516 36.2548 30.5136 36.3686C30.5757 36.4823 30.5889 36.615 30.5531 36.7401L29.9381 38.8293C29.8761 39.0397 29.6861 39.1762 29.4774 39.1762C29.4341 39.1762 29.389 39.1686 29.3457 39.1572L23.2179 37.4112L17.5942 39.2861C17.5453 39.3032 17.4945 39.3108 17.4437 39.3108C17.2444 39.3108 17.0582 39.1857 16.9923 38.9847L16.2832 36.924C16.24 36.8027 16.2494 36.6662 16.3058 36.5506C16.3622 36.433 16.4638 36.3458 16.5861 36.3041L18.0719 35.8093L16.287 35.3012C16.1629 35.2652 16.0576 35.1818 15.9955 35.0681C15.9334 34.9543 15.9203 34.8216 15.956 34.6965L16.571 32.6074C16.6462 32.3514 16.9095 32.2055 17.1634 32.2775L23.3644 34.0443L29.2814 32.0708C29.5315 31.9874 29.8005 32.122 29.887 32.3723L30.5961 34.433ZM17.3592 33.341L17.0169 34.4993L19.7026 35.2652L21.7339 34.5884L17.3592 33.341ZM29.4902 36.9354L29.1479 38.0937L24.8484 36.8671L26.8796 36.1904L29.4902 36.9354ZM17.3499 37.0718L17.743 38.215L29.5263 34.287L29.1332 33.1438L17.3499 37.0718Z" fill="white"/>
</g>
<defs>
<filter id="filter0_d_0_2932" x="0" y="0.484131" width="46.5188" height="46.8267" filterUnits="userSpaceOnUse" color-interpolation-filters="sRGB">
<feFlood flood-opacity="0" result="BackgroundImageFix"/>
<feColorMatrix in="SourceAlpha" type="matrix" values="0 0 0 0 0 0 0 0 0 0 0 0 0 0 0 0 0 0 127 0" result="hardAlpha"/>
<feOffset dy="4"/>
<feGaussianBlur stdDeviation="2"/>
<feColorMatrix type="matrix" values="0 0 0 0 0 0 0 0 0 0 0 0 0 0 0 0 0 0 0.25 0"/>
<feBlend mode="normal" in2="BackgroundImageFix" result="effect1_dropShadow_0_2932"/>
<feBlend mode="normal" in="SourceGraphic" in2="effect1_dropShadow_0_2932" result="shape"/>
</filter>
</defs>
</svg>
